<svg xmlns="http://www.w3.org/2000/svg" width="933.333" height="933.333" preserveAspectRatio="xMidYMid meet" version="1.0" viewBox="0 0 700 700"><metadata>Created by potrace 1.11, written by Peter Selinger 2001-2013</metadata><g fill="#000" stroke="none"><path d="M3520 6754 c-19 -2 -84 -9 -145 -15 -445 -43 -930 -220 -1320 -482 -483 -324 -842 -761 -1091 -1327 -16 -36 -40 -77 -54 -91 -19 -20 -142 -229 -158 -271 -2 -4 17 -8 43 -8 40 0 46 -3 41 -17 -4 -9 -19 -76 -34 -150 l-27 -133 -62 0 -63 0 0 38 -1 37 -14 -34 c-18 -41 -18 -41 0 -41 13 0 15 -23 15 -150 l0 -149 -63 -3 -62 -3 -21 -102 c-12 -56 -24 -120 -28 -142 l-6 -41 90 0 90 0 0 -150 0 -149 -102 -3 -103 -3 -3 -55 c-2 -30 -1 -97 3 -147 l7 -93 99 0 99 0 0 -145 0 -145 -80 0 c-76 0 -80 -1 -80 -22 0 -23 29 -161 50 -237 l11 -41 49 0 50 0 0 -150 0 -150 150 0 150 0 0 -145 0 -144 -81 -3 -80 -3 66 -110 c98 -163 95 -163 95 -12 l0 127 145 0 145 0 0 -150 0 -150 -131 0 -131 0 18 -27 c25 -40 157 -203 192 -238 17 -16 36 -36 44 -44 74 -80 212 -210 288 -272 100 -80 297 -219 312 -219 4 0 8 47 8 105 l0 105 145 0 145 0 0 -150 0 -149 -67 -3 -68 -3 65 -33 65 -32 3 35 3 35 150 0 149 0 0 -95 0 -94 79 -25 c67 -21 202 -56 217 -56 2 0 4 61 4 135 l0 135 145 0 145 0 0 -150 0 -150 -57 -1 -58 -1 55 -9 c37 -6 56 -6 58 1 2 6 60 10 153 10 145 0 149 -1 149 -21 0 -21 2 -21 143 -14 95 4 145 11 152 19 7 9 52 15 135 18 69 3 133 9 143 13 15 6 17 23 17 146 l0 139 150 0 150 0 0 -101 0 -101 28 6 c42 10 245 87 260 99 6 5 12 29 12 53 l0 44 95 0 c82 0 103 4 145 25 l50 25 0 125 0 125 -42 1 -43 1 30 13 c39 18 55 18 55 0 0 -13 23 -15 149 -15 145 0 150 -1 153 -21 l3 -21 25 20 25 21 -27 1 -28 0 0 88 0 88 100 57 c84 48 107 57 149 57 l50 0 3 -36 3 -35 34 35 35 36 -37 0 c-35 0 -37 1 -37 34 0 30 8 39 76 91 42 32 106 82 141 112 51 43 67 52 74 42 6 -10 9 -11 9 -1 0 6 0 15 1 20 0 4 49 57 108 117 305 311 524 652 674 1050 116 309 172 600 184 950 49 1525 -1071 2836 -2588 3030 -118 15 -485 28 -559 19z m484 -439 c1116 -131 2017 -988 2206 -2098 23 -137 37 -384 31 -537 -4 -78 -6 -94 -10 -60 l-6 45 -112 3 -113 3 0 144 0 145 84 0 85 0 -20 73 c-11 39 -32 108 -47 152 -27 79 -27 80 -63 83 l-37 3 -4 97 c-4 71 -11 110 -27 145 l-22 47 -124 0 -125 0 0 140 0 140 34 0 c19 0 37 4 40 8 3 5 -14 35 -37 68 l-42 59 -3 -57 -3 -58 -144 0 -145 0 0 140 0 140 81 0 c79 0 80 0 66 21 -9 11 -46 53 -84 91 l-68 71 -3 -86 -3 -87 -144 0 -145 0 0 145 0 144 85 3 85 3 -80 65 c-43 36 -84 66 -90 68 -6 2 -10 -21 -10 -62 l0 -66 -140 0 -140 0 0 145 0 145 28 0 27 0 -30 20 c-26 17 -31 18 -41 5 -9 -12 -38 -15 -148 -15 l-136 0 0 89 0 89 -76 32 c-105 43 -269 97 -389 126 -130 31 -135 31 -135 -6 l0 -30 -145 0 -145 0 0 54 0 53 -67 6 c-38 4 -107 7 -155 7 l-88 0 0 -60 0 -60 -140 0 -140 0 0 50 c0 45 -2 50 -22 50 -31 0 -268 -39 -279 -46 -5 -3 -9 -16 -9 -30 0 -24 -1 -24 -87 -23 l-88 1 101 48 c202 98 508 185 747 214 155 19 454 19 611 1z m-984 -425 l0 -140 -145 0 -145 0 0 140 0 140 145 0 145 0 0 -140z m590 0 l0 -140 -145 0 -145 0 0 140 0 140 145 0 145 0 0 -140z m590 0 l0 -140 -140 0 -140 0 0 140 0 140 140 0 140 0 0 -140z m-1780 -25 l0 -115 -140 0 -140 0 0 24 c0 18 22 39 108 98 135 94 155 107 165 107 4 1 7 -51 7 -114z m-290 -270 l0 -145 -145 0 -145 0 0 33 c1 35 28 68 158 190 56 52 79 67 102 67 l30 0 0 -145z m590 0 l0 -145 -140 0 -140 0 0 145 0 145 140 0 140 0 0 -145z m590 0 l0 -145 -140 0 -140 0 0 145 0 145 140 0 140 0 0 -145z m600 0 l0 -145 -145 0 -145 0 0 145 0 145 145 0 145 0 0 -145z m590 0 l0 -145 -140 0 -140 0 0 145 0 145 140 0 140 0 0 -145z m-2670 -300 l0 -145 -136 0 c-105 0 -134 3 -128 13 25 42 91 135 144 201 51 64 65 76 90 76 l30 0 0 -145z m590 0 l0 -145 -140 0 -140 0 0 145 0 145 140 0 140 0 0 -145z m600 0 l0 -145 -145 0 -145 0 0 145 0 145 145 0 145 0 0 -145z m590 0 l0 -145 -145 0 -145 0 0 145 0 145 145 0 145 0 0 -145z m590 0 l0 -145 -140 0 -140 0 0 145 0 145 140 0 140 0 0 -145z m590 0 l0 -145 -140 0 -140 0 0 145 0 145 140 0 140 0 0 -145z m-2660 -295 l0 -140 -145 0 -145 0 0 140 0 140 145 0 145 0 0 -140z m590 0 l0 -140 -140 0 -140 0 0 140 0 140 140 0 140 0 0 -140z m590 0 l0 -140 -140 0 -140 0 0 140 0 140 140 0 140 0 0 -140z m600 0 l0 -140 -145 0 -145 0 0 140 0 140 145 0 145 0 0 -140z m590 0 l0 -140 -140 0 -140 0 0 140 0 140 140 0 140 0 0 -140z m590 0 l0 -140 -140 0 -140 0 0 140 0 140 140 0 140 0 0 -140z m-3560 -20 l0 -120 -66 0 -65 0 62 120 c34 66 63 120 65 120 2 0 4 -54 4 -120z m300 -280 l0 -140 -145 0 -145 0 0 140 0 140 145 0 145 0 0 -140z m590 0 l0 -140 -140 0 -140 0 0 140 0 140 140 0 140 0 0 -140z m600 0 l0 -140 -145 0 -145 0 0 140 0 140 145 0 145 0 0 -140z m590 0 l0 -140 -145 0 -145 0 0 140 0 140 145 0 145 0 0 -140z m590 0 l0 -140 -140 0 -140 0 0 140 0 140 140 0 140 0 0 -140z m590 0 l0 -140 -140 0 -140 0 0 140 0 140 140 0 140 0 0 -140z m600 0 l0 -140 -145 0 -145 0 0 140 0 140 145 0 145 0 0 -140z m-3860 -290 l0 -140 -140 0 -140 0 0 88 c0 50 7 111 15 140 l16 52 124 0 125 0 0 -140z m600 0 l0 -140 -145 0 -145 0 0 140 0 140 145 0 145 0 0 -140z m590 0 l0 -140 -140 0 -140 0 0 140 0 140 140 0 140 0 0 -140z m590 0 l0 -140 -140 0 -140 0 0 140 0 140 140 0 140 0 0 -140z m600 0 l0 -140 -145 0 -145 0 0 140 0 140 145 0 145 0 0 -140z m590 0 l0 -140 -140 0 -140 0 0 140 0 140 140 0 140 0 0 -140z m590 0 l0 -140 -140 0 -140 0 0 140 0 140 140 0 140 0 0 -140z m600 0 l0 -140 -145 0 -145 0 0 140 0 140 145 0 145 0 0 -140z m-4450 -300 l0 -140 -36 0 -35 0 5 43 c31 245 29 237 52 237 11 0 14 -25 14 -140z m590 0 l0 -140 -145 0 -145 0 0 140 0 140 145 0 145 0 0 -140z m590 0 l0 -140 -140 0 -140 0 0 140 0 140 140 0 140 0 0 -140z m600 0 l0 -140 -145 0 -145 0 0 140 0 140 145 0 145 0 0 -140z m590 0 l0 -140 -145 0 -145 0 0 140 0 140 145 0 145 0 0 -140z m590 0 l0 -140 -140 0 -140 0 0 140 0 140 140 0 140 0 0 -140z m590 0 l0 -140 -140 0 -140 0 0 140 0 140 140 0 140 0 0 -140z m600 0 l0 -140 -145 0 -145 0 0 140 0 140 145 0 145 0 0 -140z m590 0 l0 -140 -140 0 -140 0 0 140 0 140 140 0 140 0 0 -140z m-5240 -295 l0 -145 -45 0 -45 0 0 145 0 145 45 0 45 0 0 -145z m790 0 l0 -145 -140 0 -140 0 0 145 0 145 140 0 140 0 0 -145z m600 0 l0 -145 -145 0 -145 0 0 145 0 145 145 0 145 0 0 -145z m590 0 l0 -145 -140 0 -140 0 0 145 0 145 140 0 140 0 0 -145z m590 0 l0 -145 -140 0 -140 0 0 145 0 145 140 0 140 0 0 -145z m600 0 l0 -145 -145 0 -145 0 0 145 0 145 145 0 145 0 0 -145z m590 0 l0 -145 -140 0 -140 0 0 145 0 145 140 0 140 0 0 -145z m590 0 l0 -145 -140 0 -140 0 0 145 0 145 140 0 140 0 0 -145z m600 0 l0 -145 -145 0 -145 0 0 145 0 145 145 0 145 0 0 -145z m-4450 -300 c0 -135 -1 -145 -19 -145 -21 0 -25 14 -41 155 -15 138 -16 135 25 135 l35 0 0 -145z m590 0 l0 -145 -145 0 -145 0 0 145 0 145 145 0 145 0 0 -145z m590 0 l0 -145 -140 0 -140 0 0 145 0 145 140 0 140 0 0 -145z m600 0 l0 -145 -145 0 -145 0 0 145 0 145 145 0 145 0 0 -145z m590 0 l0 -145 -145 0 -145 0 0 145 0 145 145 0 145 0 0 -145z m590 0 l0 -145 -140 0 -140 0 0 145 0 145 140 0 140 0 0 -145z m590 0 l0 -145 -140 0 -140 0 0 145 0 145 140 0 140 0 0 -145z m600 0 l0 -145 -145 0 -145 0 0 145 0 145 145 0 145 0 0 -145z m590 0 l0 -145 -140 0 -140 0 0 145 0 145 140 0 140 0 0 -145z m-5204 -182 c10 -62 44 -227 50 -245 5 -16 -4 -18 -85 -18 l-91 0 0 150 0 150 60 0 59 0 7 -37z m754 -113 l0 -140 -130 0 -130 0 -10 26 c-6 14 -10 77 -10 140 l0 114 140 0 140 0 0 -140z m600 0 l0 -140 -145 0 -145 0 0 140 0 140 145 0 145 0 0 -140z m590 0 l0 -140 -140 0 -140 0 0 140 0 140 140 0 140 0 0 -140z m590 0 l0 -140 -140 0 -140 0 0 140 0 140 140 0 140 0 0 -140z m600 0 l0 -140 -145 0 -145 0 0 140 0 140 145 0 145 0 0 -140z m590 0 l0 -140 -140 0 -140 0 0 140 0 140 140 0 140 0 0 -140z m590 0 l0 -140 -140 0 -140 0 0 140 0 140 140 0 140 0 0 -140z m600 0 l0 -140 -145 0 -145 0 0 140 0 140 145 0 145 0 0 -140z m513 108 c-3 -18 -18 -80 -32 -138 l-26 -105 -72 -3 -73 -3 0 141 0 140 105 0 105 0 -7 -32z m-4373 -408 l0 -140 -145 0 -145 0 0 140 0 140 145 0 145 0 0 -140z m590 0 l0 -140 -140 0 -140 0 0 140 0 140 140 0 140 0 0 -140z m600 0 l0 -140 -145 0 -145 0 0 140 0 140 145 0 145 0 0 -140z m590 0 l0 -140 -145 0 -145 0 0 140 0 140 145 0 145 0 0 -140z m590 0 l0 -140 -140 0 -140 0 0 140 0 140 140 0 140 0 0 -140z m590 0 l0 -140 -140 0 -140 0 0 140 0 140 140 0 140 0 0 -140z m600 0 l0 -140 -145 0 -145 0 0 140 0 140 145 0 145 0 0 -140z m590 0 l0 -140 -140 0 -140 0 0 140 0 140 140 0 140 0 0 -140z m-5050 -167 c8 -17 15 -76 18 -150 l4 -123 47 0 46 0 44 -83 c25 -45 62 -109 83 -143 21 -34 38 -64 38 -68 0 -3 -58 -6 -130 -6 l-130 0 0 150 0 150 -150 0 -150 0 0 150 0 150 133 0 134 0 13 -27z m600 -125 l0 -143 -20 33 c-22 35 -84 155 -112 215 l-17 37 74 0 75 0 0 -142z m600 2 l0 -140 -145 0 -145 0 0 140 0 140 145 0 145 0 0 -140z m590 0 l0 -140 -140 0 -140 0 0 140 0 140 140 0 140 0 0 -140z m590 0 l0 -140 -140 0 -140 0 0 140 0 140 140 0 140 0 0 -140z m600 0 l0 -140 -145 0 -145 0 0 140 0 140 145 0 145 0 0 -140z m590 0 l0 -140 -140 0 -140 0 0 140 0 140 140 0 140 0 0 -140z m590 0 l0 -140 -140 0 -140 0 0 140 0 140 140 0 140 0 0 -140z m600 0 l0 -140 -145 0 -145 0 0 140 0 140 145 0 145 0 0 -140z m329 118 c-17 -34 -19 -34 -19 -5 0 18 5 27 15 27 13 0 14 -4 4 -22z m-4189 -418 l0 -140 -48 0 c-48 0 -49 0 -98 68 -45 60 -119 167 -138 200 -6 9 25 12 138 12 l146 0 0 -140z m590 0 l0 -140 -140 0 -140 0 0 140 0 140 140 0 140 0 0 -140z m600 0 l0 -140 -145 0 -145 0 0 140 0 140 145 0 145 0 0 -140z m590 0 l0 -140 -145 0 -145 0 0 140 0 140 145 0 145 0 0 -140z m590 0 l0 -140 -140 0 -140 0 0 140 0 140 140 0 140 0 0 -140z m590 0 l0 -140 -140 0 -140 0 0 140 0 140 140 0 140 0 0 -140z m600 0 l0 -140 -145 0 -145 0 0 140 0 140 145 0 145 0 0 -140z m474 128 c-16 -29 -116 -175 -139 -203 l-24 -30 -1 123 0 122 86 0 c65 0 84 -3 78 -12z m-3734 -423 l0 -145 -54 0 -53 0 -92 88 -91 88 0 57 0 57 145 0 145 0 0 -145z m590 0 l0 -145 -140 0 -140 0 0 145 0 145 140 0 140 0 0 -145z m590 0 l0 -145 -140 0 -140 0 0 145 0 145 140 0 140 0 0 -145z m600 0 l0 -145 -145 0 -145 0 0 145 0 145 145 0 145 0 0 -145z m590 0 l0 -145 -140 0 -140 0 0 145 0 145 140 0 140 0 0 -145z m590 0 l0 -145 -140 0 -140 0 0 145 0 145 140 0 140 0 0 -145z m552 118 c-31 -44 -181 -201 -213 -224 l-29 -20 0 135 0 136 131 0 130 0 -19 -27z m-4293 -155 l82 -108 -96 0 -95 0 0 122 c0 103 2 120 13 108 8 -8 51 -63 96 -122z m1071 -253 c0 -74 -3 -135 -7 -135 -9 0 -123 74 -205 133 -66 47 -68 50 -68 93 l0 44 140 0 140 0 0 -135z m600 -10 l0 -145 -145 0 -145 0 0 145 0 145 145 0 145 0 0 -145z m590 0 l0 -145 -145 0 -145 0 0 145 0 145 145 0 145 0 0 -145z m590 0 l0 -145 -140 0 -140 0 0 145 0 145 140 0 140 0 0 -145z m590 0 l0 -145 -140 0 -140 0 0 145 0 145 140 0 140 0 0 -145z m555 119 c-66 -55 -226 -174 -235 -174 -6 0 -10 43 -10 100 l0 100 138 0 137 -1 -30 -25z m-3717 -262 l-88 -3 0 -149 0 -150 150 0 150 0 0 101 0 101 48 -40 c26 -21 87 -67 136 -101 l89 -61 -136 0 -137 0 0 -145 0 -145 -150 0 -150 0 0 145 0 145 -150 0 -150 0 0 150 0 150 150 0 150 0 0 86 0 87 88 -84 87 -84 -87 -3z m1092 -76 l0 -65 -82 39 c-46 21 -103 50 -128 64 l-45 26 128 0 127 0 0 -64z m590 -76 l0 -140 -46 0 c-25 0 -88 10 -140 22 l-94 21 0 119 0 118 140 0 140 0 0 -140z m600 0 l0 -140 -145 0 -145 0 0 140 0 140 145 0 145 0 0 -140z m590 41 l0 -99 -47 -16 c-57 -18 -207 -56 -222 -56 -7 0 -11 45 -11 135 l0 135 140 0 140 0 0 -99z m430 88 c-21 -14 -108 -59 -115 -59 -3 0 -5 16 -5 35 l0 35 68 0 c49 0 63 -3 52 -11z m-1320 -299 c0 -12 -98 -12 -180 0 -46 6 -36 7 63 9 72 0 117 -3 117 -9z m415 5 c-26 -9 -105 -12 -105 -4 0 5 26 9 58 8 31 0 53 -2 47 -4z m-1768 -69 c62 -34 126 -69 142 -76 30 -12 31 -15 31 -71 l0 -58 148 -3 147 -3 3 -147 3 -148 -151 0 -150 0 0 150 0 150 -150 0 -150 0 0 135 c0 74 4 135 8 135 4 0 58 -29 119 -64z m2253 -392 l0 -114 -150 0 -150 0 0 85 c0 80 1 85 23 89 12 3 76 17 142 33 66 16 123 27 128 25 4 -2 7 -55 7 -118z m-1300 58 l105 -19 3 -76 3 -77 149 0 150 0 0 64 0 65 145 3 145 3 0 -67 0 -68 -145 0 -145 0 0 -150 0 -150 -150 0 -150 0 0 150 0 150 -150 0 -150 0 0 101 0 102 43 -7 c23 -3 89 -14 147 -24z" transform="translate(0.000000,700.000000) scale(0.100000,-0.100000)"/></g></svg>